<svg xmlns="http://www.w3.org/2000/svg" id="Group_30" data-name="Group 30" width="26.8" height="26.8" viewBox="0 0 26.8 26.8">
  <circle id="Ellipse_1" data-name="Ellipse 1" cx="12.5" cy="12.5" r="12.5" transform="translate(0.9 0.9)" fill="none" stroke="#000" stroke-width="1.8"/>
  <path id="Path_3" data-name="Path 3" d="M6.577,16.759a.5.5,0,0,0,.664.664l6.786-3.154a.5.5,0,0,0,.243-.243l3.154-6.786a.5.5,0,0,0-.664-.664L9.973,9.73a.5.5,0,0,0-.243.243ZM12,10.8A1.2,1.2,0,1,1,10.8,12,1.2,1.2,0,0,1,12,10.8Z" transform="translate(1.4 1.4)" fill-rule="evenodd"/>
</svg>