<svg xmlns="http://www.w3.org/2000/svg" width="25.343" height="23.647" viewBox="0 0 25.343 23.647">
  <path id="Path_78" data-name="Path 78" d="M11.087,2.97a2.469,2.469,0,0,1,3.369,0l8.138,7.642a2.387,2.387,0,0,1,.757,1.74v7.075a2.423,2.423,0,0,1-2.441,2.4H18.35v-4.81a5.579,5.579,0,0,0-11.156,0v4.81H4.634a2.423,2.423,0,0,1-2.441-2.4V12.353a2.387,2.387,0,0,1,.757-1.74Zm-1.8,19.892v1.03H4.634A4.5,4.5,0,0,1,.1,19.427V12.353a4.433,4.433,0,0,1,1.4-3.231L9.643,1.479a4.584,4.584,0,0,1,6.258,0l8.138,7.642a4.433,4.433,0,0,1,1.405,3.231v7.075a4.5,4.5,0,0,1-4.534,4.465h-4.65v-1.03h0V17.022a3.486,3.486,0,0,0-6.971,0v5.841Z" transform="translate(-0.1 -0.245)" fill-rule="evenodd"/>
</svg>